<svg xmlns="http://www.w3.org/2000/svg" width="33" height="26" viewBox="0 0 33 26">
  <defs>
    <style>
      .cls-1 {
        fill: #06b728;
        fill-rule: evenodd;
      }
    </style>
  </defs>
  <path id="Shape_1_copy_5" data-name="Shape 1 copy 5" class="cls-1" d="M930.973,348.988H906.038A4.114,4.114,0,0,0,902,353.169v17.66a4.115,4.115,0,0,0,4.036,4.182h24.928A4.114,4.114,0,0,0,935,370.829V353.177A4.11,4.11,0,0,0,930.973,348.988Zm2.192,21.841a2.236,2.236,0,0,1-2.192,2.272H906.038a2.236,2.236,0,0,1-2.192-2.272V353.177a2.234,2.234,0,0,1,2.192-2.271h24.928a2.234,2.234,0,0,1,2.192,2.271v17.652h0.007Zm-10.351-9.049,8.07-7.5a0.986,0.986,0,0,0,.069-1.353,0.905,0.905,0,0,0-1.3-.07l-11.129,10.351-2.171-2.01a0.032,0.032,0,0,1-.014-0.02,1.279,1.279,0,0,0-.15-0.135l-8.835-8.193a0.9,0.9,0,0,0-1.3.077,0.979,0.979,0,0,0,.075,1.353l8.166,7.563-8.132,7.888a0.984,0.984,0,0,0-.041,1.352,0.927,0.927,0,0,0,.676.3,0.907,0.907,0,0,0,.628-0.255l8.255-8,2.239,2.073a0.894,0.894,0,0,0,1.229-.007l2.3-2.136,8.207,8.08a0.9,0.9,0,0,0,1.3-.036,0.985,0.985,0,0,0-.034-1.352Z" transform="translate(-902 -349)"/>
</svg>
