<svg xmlns="http://www.w3.org/2000/svg" width="126" height="125" viewBox="0 0 126 125">
  <defs>
    <style>
      .cls-1 {
        fill: #f84646;
        fill-rule: evenodd;
      }
    </style>
  </defs>
  <path id="excellent" class="cls-1" d="M1022.99,428.57a3.733,3.733,0,0,0-3.44-3.524l-8.31-1.262c-9.8-1.487-19.921-3.026-29.955-4.522a1.011,1.011,0,0,1-.963-0.7c-4.1-8.71-8.29-17.555-12.343-26.109l-2.044-4.315c-0.883-1.863-1.91-4.026-2.932-6.133a3.3,3.3,0,0,0-3.048-2.013h-0.068a3.326,3.326,0,0,0-2.974,1.976c-0.134.257-.259,0.521-0.369,0.753L946.05,404.854q-3.3,6.97-6.6,13.943c-0.18.38-.224,0.387-0.342,0.4-6.592.974-13.291,1.986-19.775,2.965l-1.787.27c-5.457.823-11.336,1.712-17.357,2.632a3.753,3.753,0,0,0-2.8,1.88,3.339,3.339,0,0,0-.06,3.013,5.9,5.9,0,0,0,1.172,1.586c3.779,3.859,7.583,7.718,10.852,11.032l1.789,1.814c4.951,5.02,10.07,10.211,15.126,15.3a0.622,0.622,0,0,1,.232.686c-0.928,5.549-1.845,11.122-2.732,16.511l-1.634,9.939q-1.149,6.989-2.3,13.977a3.531,3.531,0,0,0,1.408,3.583,3.128,3.128,0,0,0,1.855.624h0a3.8,3.8,0,0,0,1.858-.53c0.215-.12.432-0.239,0.648-0.357l6.287-3.443c9.03-4.945,18.367-10.057,27.651-15.162a0.646,0.646,0,0,1,.811-0.014c2.573,1.437,5.2,2.872,7.743,4.26l0.039,0.022q1.532,0.836,3.063,1.675l1.915,1.049q10.878,5.961,21.754,11.927a3.319,3.319,0,0,0,3.787-.038,3.537,3.537,0,0,0,1.414-3.675c-0.528-3.157-1.054-6.37-1.566-9.492q-0.34-2.082-.683-4.165l-0.683-4.154c-1.215-7.381-2.472-15.014-3.719-22.518a0.62,0.62,0,0,1,.211-0.69c1.759-1.753,3.524-3.554,5.231-5.3q1.394-1.422,2.789-2.84,5.085-5.154,10.18-10.305,4.65-4.714,9.31-9.432l0.16-.161a5.131,5.131,0,0,0,1.46-2.215c0.05-.123.1-0.247,0.15-0.368l0.11-.25Zm-30.5,26.318c-0.833.861-1.7,1.75-2.558,2.606a2.787,2.787,0,0,0-.842,2.588c1.8,10.888,3.629,21.964,5.395,32.677l1.011,6.131c0.066,0.393.134,0.794,0.2,1.2-12.114-6.632-23.1-12.65-34.436-18.877a2.692,2.692,0,0,0-1.312-.373,2.577,2.577,0,0,0-1.258.352c-11.5,6.32-23.092,12.668-34.3,18.807l-0.15.082,0.746-4.546c1.838-11.2,3.738-22.783,5.67-34.2a4.878,4.878,0,0,0-1.484-4.7c-6.045-6.049-12.125-12.233-18-18.214q-2.561-2.606-5.122-5.208c-1.211-1.23-2.614-2.661-4.029-4.135,12.948-1.978,25.653-3.915,38.552-5.847a2.81,2.81,0,0,0,2.295-1.758c5.2-10.993,10.5-22.165,15.621-32.968l1.478-3.117,0.12,0.253c5.561,11.735,11.312,23.87,16.988,35.891a2.767,2.767,0,0,0,2.247,1.69c13.921,2.091,27.854,4.217,38.584,5.858-1.83,1.889-3.78,3.874-5.92,6.05l-8.88,9-0.42.425q-4.234,4.286-8.464,8.572C993.629,453.707,993.057,454.3,992.485,454.888Zm-49.024-17.719a0.54,0.54,0,0,1-.128-0.552,0.546,0.546,0,0,1,.436-0.364l3.577-.543,1.6-3.4a0.549,0.549,0,0,1,.99,0l1.6,3.4,3.577,0.543a0.541,0.541,0,0,1,.309.915l-2.6,2.652,0.616,3.749a0.538,0.538,0,0,1-.224.53,0.552,0.552,0,0,1-.579.032l-3.193-1.752-3.191,1.752a0.546,0.546,0,0,1-.8-0.562l0.615-3.749Zm21.844,0a0.542,0.542,0,0,1,.309-0.916l3.577-.543,1.6-3.4a0.549,0.549,0,0,1,.99,0l1.6,3.4,3.577,0.543a0.545,0.545,0,0,1,.435.364,0.538,0.538,0,0,1-.127.551l-2.605,2.653,0.617,3.748a0.54,0.54,0,0,1-.225.531,0.55,0.55,0,0,1-.578.032l-3.194-1.753-3.191,1.753a0.548,0.548,0,0,1-.579-0.032,0.541,0.541,0,0,1-.223-0.531l0.614-3.748Zm14.521,18.215a1.1,1.1,0,0,1,.091,1.047,21.455,21.455,0,0,1-19.86,12.581c-8.923,0-16.765-4.962-19.976-12.642a1.1,1.1,0,0,1,.1-1.04,1.119,1.119,0,0,1,.927-0.491h0l37.786,0.047A1.112,1.112,0,0,1,979.826,455.384Z" transform="translate(-897 -380)"/>
</svg>
