<svg xmlns="http://www.w3.org/2000/svg" width="19.781" height="16.969" viewBox="0 0 19.781 16.969">
  <defs>
    <style>
      .cls-1 {
        fill: #3f3f3f;
        fill-rule: evenodd;
      }
    </style>
  </defs>
  <path class="cls-1" d="M698.291,309.622h-4.683a2.068,2.068,0,0,1-2.066-2.067,0.552,0.552,0,0,0-.555-0.555h-6.112a3.181,3.181,0,0,0-3.176,3.177V320.8a3.181,3.181,0,0,0,3.176,3.177h13.416a3.181,3.181,0,0,0,3.176-3.177V312.8A3.178,3.178,0,0,0,698.291,309.622Zm2.067,11.177a2.069,2.069,0,0,1-2.067,2.067H684.875a2.069,2.069,0,0,1-2.067-2.067V310.177a2.068,2.068,0,0,1,2.067-2.067h5.607a3.182,3.182,0,0,0,3.126,2.622h4.683a2.069,2.069,0,0,1,2.067,2.068v8h0Z" transform="translate(-681.688 -307)"/>
</svg>
