<svg xmlns="http://www.w3.org/2000/svg" width="25" height="23" viewBox="0 0 25 23">
  <defs>
    <style>
      .cls-1 {
        fill: #3f3f3f;
        stroke: #3f3f3f;
        stroke-linejoin: round;
        stroke-width: 1px;
        fill-rule: evenodd;
      }
    </style>
  </defs>
  <path id="Forma_1" data-name="Forma 1" class="cls-1" d="M540.735,313.97a1.884,1.884,0,1,0-2.057-1.876A1.975,1.975,0,0,0,540.735,313.97Zm0-3.217a1.346,1.346,0,1,1-1.469,1.341A1.411,1.411,0,0,1,540.735,310.753Zm5.664,6.167h-2.1l0.9-1.18a5.467,5.467,0,0,0-.523-7.234,6.023,6.023,0,0,0-7.968,0,5.464,5.464,0,0,0-.531,7.226l0.9,1.188h-2.207l-3.218,6.166h17.972Zm-9.754-1.5a4.938,4.938,0,0,1,.469-6.533,5.4,5.4,0,0,1,7.138,0,4.94,4.94,0,0,1,.462,6.541l-4.031,5.312-2.9-3.818h0Zm-1.411,2.038h2.243l3.206,4.225,3.205-4.225h2.139l2.659,5.094H532.575Z" transform="translate(-528 -304)"/>
</svg>
