<svg xmlns="http://www.w3.org/2000/svg" width="45" height="69" viewBox="0 0 45 69">
  <defs>
    <style>
      .cls-1 {
        fill: #fff;
        fill-rule: evenodd;
      }
    </style>
  </defs>
  <path id="Forma_1_copy_106" data-name="Forma 1 copy 106" class="cls-1" d="M316.025,989h-27.05A8.957,8.957,0,0,0,280,997.918v51.162a8.957,8.957,0,0,0,8.975,8.92h27.05a8.957,8.957,0,0,0,8.975-8.92V997.918A8.957,8.957,0,0,0,316.025,989Zm-21.294,4.044h15.538v2.212a0.282,0.282,0,0,1-.282.281H295.013a0.281,0.281,0,0,1-.282-0.281v-2.212h0Zm26.2,56.037h0a4.891,4.891,0,0,1-4.905,4.87h-27.05a4.89,4.89,0,0,1-4.905-4.87V997.918a4.9,4.9,0,0,1,4.905-4.875h1.687v2.212a4.343,4.343,0,0,0,4.351,4.325h14.974a4.343,4.343,0,0,0,4.351-4.325v-2.212h1.687a4.9,4.9,0,0,1,4.905,4.875v51.162h0Zm-14.584-1.98h-7.692a2.025,2.025,0,1,0,0,4.05h7.692A2.025,2.025,0,1,0,306.346,1047.1Zm-3.846-37.11a13.51,13.51,0,1,0,13.594,13.51A13.567,13.567,0,0,0,302.5,1009.99Zm0,22.98a9.465,9.465,0,1,1,9.524-9.47A9.509,9.509,0,0,1,302.5,1032.97Zm0-16.6a2.025,2.025,0,0,0-2.035,2.02v4.66a2.035,2.035,0,0,0,4.07,0v-4.66A2.025,2.025,0,0,0,302.5,1016.37Zm1.439,10.7c-0.048-.04-0.1-0.09-0.149-0.13s-0.105-.08-0.161-0.12-0.112-.07-0.171-0.1a1.251,1.251,0,0,0-.18-0.08,1.278,1.278,0,0,0-.187-0.07,1.349,1.349,0,0,0-.194-0.05l-0.2-.03a2.065,2.065,0,0,0-1.638.58,2.04,2.04,0,0,0-.6,1.43,2.005,2.005,0,0,0,.6,1.43c0.046,0.05.1,0.09,0.147,0.14a1.217,1.217,0,0,0,.162.11c0.054,0.04.112,0.07,0.171,0.11s0.119,0.05.18,0.08,0.124,0.05.187,0.07,0.129,0.03.193,0.05a1.3,1.3,0,0,0,.2.02,1.342,1.342,0,0,0,.2.02,1.369,1.369,0,0,0,.2-0.02,1.329,1.329,0,0,0,.2-0.02c0.065-.02.13-0.03,0.193-0.05s0.127-.05.188-0.07a1.251,1.251,0,0,0,.18-0.08c0.058-.04.115-0.07,0.171-0.11a1.082,1.082,0,0,0,.16-0.11c0.052-.05.1-0.09,0.149-0.14a2,2,0,0,0,.6-1.43A2.043,2.043,0,0,0,303.939,1027.07Z" transform="translate(-280 -989)"/>
</svg>
