<svg xmlns="http://www.w3.org/2000/svg" width="22" height="22" viewBox="0 0 22 22">
  <defs>
    <style>
      .cls-1 {
        fill: #fff;
        fill-rule: evenodd;
      }
    </style>
  </defs>
  <path id="Forma_1" data-name="Forma 1" class="cls-1" d="M1209.96,642.047a2.744,2.744,0,0,0-1.19-.828c-0.2-.115-0.48-0.271-0.85-0.469s-0.69-.38-0.99-0.547-0.57-.329-0.83-0.484c-0.05-.032-0.18-0.123-0.4-0.274a3.886,3.886,0,0,0-.55-0.336,1.02,1.02,0,0,0-.45-0.109,1.335,1.335,0,0,0-.78.445,7.794,7.794,0,0,0-.86.969,9.517,9.517,0,0,1-.82.969,1.233,1.233,0,0,1-.72.445,1.115,1.115,0,0,1-.36-0.078c-0.14-.051-0.24-0.1-0.32-0.132s-0.19-.109-0.37-0.22-0.28-.169-0.3-0.179a15.506,15.506,0,0,1-6.39-6.392q-0.015-.031-0.18-0.3c-0.11-.177-0.18-0.3-0.22-0.376s-0.08-.179-0.13-0.32a1.119,1.119,0,0,1-.08-0.351,1.185,1.185,0,0,1,.45-0.719,8.687,8.687,0,0,1,.97-0.829,7.686,7.686,0,0,0,.96-0.859,1.292,1.292,0,0,0,.45-0.781,1.057,1.057,0,0,0-.11-0.445,3.385,3.385,0,0,0-.34-0.556l-0.27-.391q-0.24-.389-0.48-0.835c-0.17-.3-0.35-0.628-0.55-0.993s-0.35-.646-0.47-0.844a2.615,2.615,0,0,0-.83-1.187,0.866,0.866,0,0,0-.33-0.047,5.221,5.221,0,0,0-1.1.156,6.218,6.218,0,0,0-1.07.329,4.23,4.23,0,0,0-1.66,1.906,6.062,6.062,0,0,0-.79,2.907,7.3,7.3,0,0,0,.05.82,6.436,6.436,0,0,0,.2.9c0.09,0.333.17,0.581,0.22,0.742s0.17,0.451.32,0.867,0.25,0.673.29,0.766a13.877,13.877,0,0,0,1.29,2.735,23.59,23.59,0,0,0,3.37,4.134,23.225,23.225,0,0,0,4.13,3.368,14.546,14.546,0,0,0,2.74,1.3c0.09,0.031.35,0.124,0.77,0.281s0.7,0.263.86,0.32,0.41,0.133.75,0.227a6.794,6.794,0,0,0,.89.2,6.16,6.16,0,0,0,.82.055,6.074,6.074,0,0,0,2.91-.8,4.214,4.214,0,0,0,1.91-1.657,7.247,7.247,0,0,0,.33-1.07,5.356,5.356,0,0,0,.15-1.1A0.933,0.933,0,0,0,1209.96,642.047Z" transform="translate(-1188 -625)"/>
</svg>
