<svg xmlns="http://www.w3.org/2000/svg" width="17.094" height="15.188" viewBox="0 0 17.094 15.188">
  <defs>
    <style>
      .cls-1 {
        fill: #3f3f3f;
        fill-rule: evenodd;
      }
    </style>
  </defs>
  <path id="Forma_1" data-name="Forma 1" class="cls-1" d="M288.579,310.106a0.621,0.621,0,0,0-.737.448l-0.451,1.975a8.181,8.181,0,0,0-6.961-3.742,7.841,7.841,0,0,0-8.068,7.572,0.622,0.622,0,0,0,1.241,0,6.635,6.635,0,0,1,6.827-6.407,6.919,6.919,0,0,1,5.9,3.189l-2.069-.416a0.621,0.621,0,0,0-.737.448,0.583,0.583,0,0,0,.477.691l3.552,0.714a0.62,0.62,0,0,0,.182.011,0.651,0.651,0,0,0,.285-0.091,0.587,0.587,0,0,0,.27-0.367l0.761-3.333A0.584,0.584,0,0,0,288.579,310.106Zm-0.624,5.489a0.6,0.6,0,0,0-.6.6,6.15,6.15,0,0,1-1.839,4.59,6.987,6.987,0,0,1-4.759,2.024c-0.076,0-.152,0-0.228,0a6.937,6.937,0,0,1-5.806-3.037l2.158,0.543a0.626,0.626,0,0,0,.76-0.412,0.579,0.579,0,0,0-.439-0.713l-3.509-.883a0.658,0.658,0,0,0-.471.058,0.592,0.592,0,0,0-.289.354l-0.941,3.292a0.581,0.581,0,0,0,.439.714,0.64,0.64,0,0,0,.161.02,0.616,0.616,0,0,0,.6-0.432l0.529-1.851a8.2,8.2,0,0,0,6.809,3.512c0.089,0,.179,0,0.269,0a8.255,8.255,0,0,0,5.624-2.394,7.259,7.259,0,0,0,2.173-5.424A0.605,0.605,0,0,0,287.955,315.6Z" transform="translate(-271.969 -308.781)"/>
</svg>
